<svg xmlns="http://www.w3.org/2000/svg" xmlns:xlink="http://www.w3.org/1999/xlink" width="500" zoomAndPan="magnify" viewBox="0 0 375 374.999991" height="500" preserveAspectRatio="xMidYMid meet" version="1.0"><defs><g/></defs><rect x="-37.5" width="450" fill="#ffffff" y="-37.499999" height="449.999989" fill-opacity="1"/><rect x="-37.5" width="450" fill="#ffffff" y="-37.499999" height="449.999989" fill-opacity="1"/><g fill="#0097b2" fill-opacity="1"><g transform="translate(115.611326, 170.388651)"><g><path d="M 9.117188 -13.183594 L 1.726562 -13.183594 C 1.601562 -13.183594 1.28125 -13.132812 1.28125 -12.621094 L 1.28125 -11.359375 C 1.28125 -10.863281 1.601562 -10.8125 1.726562 -10.8125 L 8.703125 -10.8125 C 9.101562 -10.8125 9.390625 -10.703125 9.550781 -10.460938 C 9.726562 -10.222656 9.804688 -9.839844 9.804688 -9.308594 C 9.804688 -8.78125 9.726562 -8.398438 9.550781 -8.160156 C 9.390625 -7.917969 9.101562 -7.808594 8.703125 -7.808594 L 1.726562 -7.808594 C 1.601562 -7.808594 1.28125 -7.757812 1.28125 -7.261719 L 1.28125 -0.542969 C 1.28125 -0.046875 1.601562 0.015625 1.726562 0.015625 L 3.199219 0.015625 C 3.328125 0.015625 3.648438 -0.046875 3.648438 -0.542969 L 3.648438 -5.4375 L 9.117188 -5.457031 C 10.207031 -5.457031 10.992188 -5.792969 11.46875 -6.464844 C 11.949219 -7.136719 12.175781 -8.09375 12.175781 -9.359375 L 12.175781 -9.261719 C 12.175781 -10.542969 11.949219 -11.503906 11.46875 -12.15625 C 10.992188 -12.847656 10.207031 -13.183594 9.117188 -13.183594 Z M 9.117188 -13.183594 "/></g></g></g><g fill="#0097b2" fill-opacity="1"><g transform="translate(129.8639, 170.388651)"><g><path d="M 10.894531 -2.863281 L 5.261719 -2.863281 C 4.925781 -2.863281 4.65625 -2.910156 4.429688 -2.976562 C 4.222656 -3.054688 4.078125 -3.167969 3.953125 -3.328125 C 3.824219 -3.503906 3.726562 -3.742188 3.679688 -4.046875 C 3.664062 -4.128906 3.664062 -4.238281 3.648438 -4.320312 C 3.648438 -4.320312 3.664062 -5.472656 3.679688 -5.472656 L 10.832031 -5.472656 C 10.957031 -5.472656 11.277344 -5.535156 11.277344 -6.03125 L 11.277344 -7.292969 C 11.277344 -7.789062 10.957031 -7.839844 10.832031 -7.839844 L 2.574219 -7.824219 C 2.113281 -7.789062 1.710938 -7.550781 1.488281 -7.152344 C 1.40625 -7.023438 1.34375 -6.894531 1.3125 -6.75 L 1.28125 -4.734375 L 1.28125 -4.65625 C 1.296875 -3.902344 1.375 -3.261719 1.488281 -2.734375 C 1.632812 -2.09375 1.871094 -1.566406 2.175781 -1.167969 C 2.496094 -0.75 2.910156 -0.464844 3.421875 -0.289062 C 3.917969 -0.0976562 4.511719 -0.015625 5.214844 -0.015625 L 10.894531 -0.015625 C 11.039062 -0.015625 11.359375 -0.0625 11.359375 -0.558594 L 11.359375 -2.320312 C 11.359375 -2.816406 11.039062 -2.863281 10.894531 -2.863281 Z M 10.910156 -13.214844 L 1.710938 -13.214844 C 1.582031 -13.214844 1.28125 -13.148438 1.28125 -12.636719 L 1.28125 -11.390625 C 1.28125 -10.894531 1.582031 -10.847656 1.710938 -10.847656 L 10.910156 -10.832031 C 11.039062 -10.832031 11.359375 -10.894531 11.359375 -11.390625 L 11.359375 -12.652344 C 11.359375 -13.148438 11.039062 -13.214844 10.910156 -13.214844 Z M 10.910156 -13.214844 "/></g></g></g><g fill="#0097b2" fill-opacity="1"><g transform="translate(143.30067, 170.388651)"><g><path d="M 12.191406 -9.359375 C 12.191406 -9.34375 12.191406 -9.328125 12.191406 -9.308594 C 12.191406 -9.292969 12.191406 -9.277344 12.191406 -9.261719 Z M 12.492188 -0.6875 L 9.695312 -5.488281 C 10.476562 -5.582031 11.085938 -5.917969 11.484375 -6.464844 C 11.933594 -7.117188 12.175781 -8.0625 12.191406 -9.308594 C 12.175781 -10.558594 11.933594 -11.503906 11.484375 -12.15625 C 11.007812 -12.847656 10.207031 -13.183594 9.117188 -13.183594 L 1.742188 -13.183594 C 1.601562 -13.183594 1.28125 -13.132812 1.28125 -12.621094 L 1.28125 -11.359375 C 1.28125 -10.863281 1.601562 -10.8125 1.742188 -10.8125 L 8.703125 -10.8125 C 9.117188 -10.8125 9.390625 -10.703125 9.550781 -10.460938 C 9.726562 -10.222656 9.804688 -9.839844 9.804688 -9.308594 C 9.804688 -8.78125 9.726562 -8.398438 9.550781 -8.160156 C 9.390625 -7.917969 9.117188 -7.808594 8.703125 -7.808594 L 1.742188 -7.808594 C 1.601562 -7.808594 1.28125 -7.757812 1.28125 -7.261719 L 1.28125 -0.542969 C 1.28125 -0.046875 1.601562 0.015625 1.742188 0.015625 L 3.199219 0.015625 C 3.34375 0.015625 3.648438 -0.046875 3.648438 -0.542969 L 3.648438 -5.4375 L 7.023438 -5.4375 L 9.917969 -0.304688 C 9.984375 -0.207031 10.03125 -0.128906 10.09375 -0.078125 C 10.175781 -0.015625 10.285156 0.015625 10.429688 0.015625 L 12.191406 0.015625 C 12.382812 0.015625 12.527344 -0.113281 12.558594 -0.304688 C 12.574219 -0.464844 12.558594 -0.59375 12.492188 -0.6875 Z M 12.492188 -0.6875 "/></g></g></g><g fill="#0097b2" fill-opacity="1"><g transform="translate(157.953146, 170.388651)"><g><path d="M 3.199219 -13.183594 L 1.726562 -13.183594 C 1.601562 -13.183594 1.28125 -13.117188 1.28125 -12.621094 L 1.28125 -0.542969 C 1.28125 -0.046875 1.601562 0.015625 1.726562 0.015625 L 3.199219 0.015625 C 3.328125 0.015625 3.648438 -0.046875 3.648438 -0.542969 L 3.648438 -12.621094 C 3.648438 -13.117188 3.328125 -13.183594 3.199219 -13.183594 Z M 3.199219 -13.183594 "/></g></g></g><g fill="#0097b2" fill-opacity="1"><g transform="translate(163.679769, 170.388651)"><g><path d="M 13.117188 -13.183594 L 11.34375 -13.183594 C 11.199219 -13.183594 11.007812 -13.132812 10.878906 -12.894531 L 7.359375 -6.480469 L 3.871094 -12.878906 C 3.742188 -13.132812 3.550781 -13.183594 3.40625 -13.183594 L 1.582031 -13.183594 C 1.441406 -13.183594 1.328125 -13.101562 1.296875 -12.957031 C 1.265625 -12.847656 1.28125 -12.71875 1.34375 -12.605469 L 6.144531 -4.046875 L 6.144531 -0.542969 C 6.144531 -0.046875 6.464844 0 6.589844 0 L 8.0625 0 C 8.191406 0 8.511719 -0.046875 8.511719 -0.542969 L 8.511719 -4.046875 L 13.359375 -12.605469 C 13.421875 -12.71875 13.4375 -12.847656 13.40625 -12.972656 C 13.359375 -13.101562 13.246094 -13.183594 13.117188 -13.183594 Z M 13.117188 -13.183594 "/></g></g></g><g fill="#0097b2" fill-opacity="1"><g transform="translate(179.180047, 170.388651)"><g><path d="M 9.855469 -11.695312 C 9.824219 -11.773438 9.789062 -11.871094 9.757812 -11.933594 C 9.503906 -12.765625 8.734375 -13.359375 7.855469 -13.359375 C 7.453125 -13.359375 7.070312 -13.246094 6.75 -13.023438 C 6.65625 -12.972656 6.574219 -12.910156 6.511719 -12.863281 C 6.269531 -12.652344 6.03125 -12.269531 5.808594 -11.695312 L 1.34375 -0.609375 C 1.296875 -0.464844 1.28125 -0.320312 1.3125 -0.222656 C 1.328125 -0.128906 1.40625 0.015625 1.664062 0.015625 L 3.421875 0.015625 C 3.632812 0.015625 3.792969 -0.113281 3.871094 -0.320312 L 4.785156 -2.609375 L 8.285156 -2.609375 C 8.460938 -2.609375 8.621094 -2.6875 8.703125 -2.832031 C 8.796875 -2.960938 8.816406 -3.136719 8.765625 -3.296875 L 8.191406 -4.71875 C 8.109375 -4.910156 7.933594 -5.039062 7.726562 -5.039062 L 5.742188 -5.039062 L 7.789062 -10.222656 C 7.808594 -10.253906 7.824219 -10.269531 7.824219 -10.269531 L 7.886719 -10.269531 C 7.886719 -10.269531 7.886719 -10.269531 7.902344 -10.238281 L 11.871094 -0.335938 C 11.949219 -0.113281 12.109375 0.015625 12.335938 0.015625 L 14.046875 0.015625 C 14.300781 0.015625 14.367188 -0.144531 14.398438 -0.222656 C 14.429688 -0.320312 14.414062 -0.464844 14.351562 -0.609375 Z M 9.855469 -11.695312 "/></g></g></g><g fill="#0097b2" fill-opacity="1"><g transform="translate(195.688079, 170.388651)"><g><path d="M 9.007812 -7.871094 L 4.207031 -7.871094 C 3.96875 -7.871094 3.664062 -7.964844 3.664062 -8.75 L 3.664062 -9.933594 C 3.664062 -10.222656 3.710938 -10.445312 3.792969 -10.605469 C 3.855469 -10.703125 3.953125 -10.8125 4.222656 -10.8125 L 10.734375 -10.8125 C 10.863281 -10.8125 11.183594 -10.863281 11.183594 -11.359375 L 11.183594 -12.636719 C 11.183594 -13.132812 10.863281 -13.183594 10.734375 -13.183594 L 3.839844 -13.183594 C 2.960938 -13.183594 2.320312 -12.894531 1.902344 -12.300781 C 1.488281 -11.726562 1.28125 -10.957031 1.28125 -10.03125 L 1.28125 -8.816406 C 1.28125 -7.710938 1.503906 -6.816406 1.902344 -6.253906 C 2.398438 -5.597656 3.136719 -5.503906 3.808594 -5.503906 L 8.605469 -5.503906 C 8.847656 -5.503906 9.167969 -5.40625 9.167969 -4.625 L 9.167969 -3.246094 C 9.167969 -2.960938 9.117188 -2.734375 9.023438 -2.574219 C 8.957031 -2.480469 8.863281 -2.367188 8.589844 -2.367188 L 1.757812 -2.367188 C 1.617188 -2.367188 1.296875 -2.320312 1.296875 -1.824219 L 1.296875 -0.542969 C 1.296875 -0.046875 1.617188 0 1.757812 0 L 8.972656 0 C 9.855469 0 10.511719 -0.304688 10.925781 -0.894531 C 11.328125 -1.472656 11.535156 -2.222656 11.535156 -3.152344 L 11.535156 -4.558594 C 11.535156 -5.597656 11.328125 -6.414062 10.910156 -6.992188 C 10.476562 -7.566406 9.839844 -7.871094 9.007812 -7.871094 Z M 9.007812 -7.871094 "/></g></g></g><g fill="#0097b2" fill-opacity="1"><g transform="translate(209.300814, 170.388651)"><g><path d="M 9.855469 -11.695312 C 9.824219 -11.773438 9.789062 -11.871094 9.757812 -11.933594 C 9.503906 -12.765625 8.734375 -13.359375 7.855469 -13.359375 C 7.453125 -13.359375 7.070312 -13.246094 6.75 -13.023438 C 6.65625 -12.972656 6.574219 -12.910156 6.511719 -12.863281 C 6.269531 -12.652344 6.03125 -12.269531 5.808594 -11.695312 L 1.34375 -0.609375 C 1.296875 -0.464844 1.28125 -0.320312 1.3125 -0.222656 C 1.328125 -0.128906 1.40625 0.015625 1.664062 0.015625 L 3.421875 0.015625 C 3.632812 0.015625 3.792969 -0.113281 3.871094 -0.320312 L 4.785156 -2.609375 L 8.285156 -2.609375 C 8.460938 -2.609375 8.621094 -2.6875 8.703125 -2.832031 C 8.796875 -2.960938 8.816406 -3.136719 8.765625 -3.296875 L 8.191406 -4.71875 C 8.109375 -4.910156 7.933594 -5.039062 7.726562 -5.039062 L 5.742188 -5.039062 L 7.789062 -10.222656 C 7.808594 -10.253906 7.824219 -10.269531 7.824219 -10.269531 L 7.886719 -10.269531 C 7.886719 -10.269531 7.886719 -10.269531 7.902344 -10.238281 L 11.871094 -0.335938 C 11.949219 -0.113281 12.109375 0.015625 12.335938 0.015625 L 14.046875 0.015625 C 14.300781 0.015625 14.367188 -0.144531 14.398438 -0.222656 C 14.429688 -0.320312 14.414062 -0.464844 14.351562 -0.609375 Z M 9.855469 -11.695312 "/></g></g></g><g fill="#0097b2" fill-opacity="1"><g transform="translate(225.808847, 170.388651)"><g><path d="M 14.636719 -13.183594 L 13.199219 -13.183594 C 12.972656 -13.183594 12.796875 -13.164062 12.636719 -13.117188 C 12.476562 -13.070312 12.335938 -12.988281 12.207031 -12.878906 C 12.09375 -12.75 11.980469 -12.605469 11.886719 -12.414062 C 11.789062 -12.222656 11.710938 -11.980469 11.613281 -11.679688 L 8.78125 -4.605469 C 8.765625 -4.542969 8.75 -4.542969 8.734375 -4.542969 L 8.574219 -4.542969 C 8.574219 -4.542969 8.542969 -4.542969 8.527344 -4.605469 L 5.710938 -11.679688 C 5.613281 -11.980469 5.519531 -12.222656 5.4375 -12.414062 C 5.34375 -12.605469 5.230469 -12.75 5.121094 -12.878906 C 4.992188 -12.988281 4.832031 -13.070312 4.671875 -13.117188 C 4.511719 -13.164062 4.320312 -13.183594 4.113281 -13.183594 L 2.640625 -13.183594 C 2.09375 -13.183594 1.726562 -13.007812 1.535156 -12.671875 C 1.359375 -12.367188 1.28125 -11.855469 1.28125 -11.117188 L 1.28125 -0.542969 C 1.28125 -0.046875 1.601562 0.015625 1.742188 0.015625 L 3.121094 0.015625 C 3.261719 0.015625 3.566406 -0.046875 3.566406 -0.542969 L 3.566406 -10.160156 C 3.566406 -10.175781 3.566406 -10.191406 3.566406 -10.191406 L 3.648438 -10.191406 C 3.664062 -10.191406 3.679688 -10.191406 3.695312 -10.140625 L 6.429688 -3.375 C 6.542969 -3.039062 6.65625 -2.75 6.765625 -2.511719 C 6.894531 -2.273438 7.023438 -2.078125 7.152344 -1.917969 C 7.3125 -1.757812 7.472656 -1.632812 7.664062 -1.566406 C 7.855469 -1.503906 8.0625 -1.472656 8.300781 -1.472656 L 8.957031 -1.472656 C 9.199219 -1.472656 9.421875 -1.503906 9.597656 -1.566406 C 9.789062 -1.632812 9.964844 -1.757812 10.109375 -1.917969 C 10.238281 -2.078125 10.382812 -2.273438 10.496094 -2.511719 C 10.605469 -2.75 10.71875 -3.039062 10.832031 -3.375 L 13.582031 -10.160156 C 13.582031 -10.191406 13.597656 -10.191406 13.613281 -10.191406 L 13.695312 -10.191406 C 13.695312 -10.191406 13.695312 -10.175781 13.695312 -10.160156 L 13.695312 -0.542969 C 13.695312 -0.046875 14.015625 0.015625 14.140625 0.015625 L 15.515625 0.015625 C 15.660156 0.015625 15.980469 -0.046875 15.980469 -0.542969 L 15.980469 -11.117188 C 15.980469 -11.855469 15.902344 -12.367188 15.726562 -12.671875 C 15.535156 -13.007812 15.164062 -13.183594 14.636719 -13.183594 Z M 14.636719 -13.183594 "/></g></g></g><g fill="#0097b2" fill-opacity="1"><g transform="translate(243.868504, 170.388651)"><g><path d="M 13.117188 -13.183594 L 11.34375 -13.183594 C 11.199219 -13.183594 11.007812 -13.132812 10.878906 -12.894531 L 7.359375 -6.480469 L 3.871094 -12.878906 C 3.742188 -13.132812 3.550781 -13.183594 3.40625 -13.183594 L 1.582031 -13.183594 C 1.441406 -13.183594 1.328125 -13.101562 1.296875 -12.957031 C 1.265625 -12.847656 1.28125 -12.71875 1.34375 -12.605469 L 6.144531 -4.046875 L 6.144531 -0.542969 C 6.144531 -0.046875 6.464844 0 6.589844 0 L 8.0625 0 C 8.191406 0 8.511719 -0.046875 8.511719 -0.542969 L 8.511719 -4.046875 L 13.359375 -12.605469 C 13.421875 -12.71875 13.4375 -12.847656 13.40625 -12.972656 C 13.359375 -13.101562 13.246094 -13.183594 13.117188 -13.183594 Z M 13.117188 -13.183594 "/></g></g></g></svg>